<?xml version="1.0" encoding="UTF-8"?>
<svg version="1.1" xmlns="http://www.w3.org/2000/svg" width="967" height="608">
<path d="M0 0 C319.11 0 638.22 0 967 0 C967 200.64 967 401.28 967 608 C647.89 608 328.78 608 0 608 C0 407.36 0 206.72 0 0 Z " fill="#FEFEFE" transform="translate(0,0)"/>
<path d="M0 0 C3.03236795 0.67448932 4.35438833 1.93397127 6.08984375 4.46484375 C7.24911903 7.94266958 7.20297441 10.65287632 7.1875 14.3203125 C7.18537758 15.31276726 7.18537758 15.31276726 7.18321228 16.32527161 C7.17762371 18.43434203 7.1650734 20.54330552 7.15234375 22.65234375 C7.14732727 24.08398284 7.14276462 25.5156236 7.13867188 26.94726562 C7.12765805 30.45315963 7.1104013 33.95899125 7.08984375 37.46484375 C8.23195313 37.44929947 9.3740625 37.43375519 10.55078125 37.41773987 C21.37670292 37.27510483 32.20243102 37.17055584 43.02908325 37.10215855 C48.59368412 37.06581076 54.15751933 37.01660199 59.72167969 36.93676758 C65.10342808 36.86004411 70.48444563 36.81871516 75.86669922 36.80070305 C77.9078317 36.78788691 79.94892956 36.76286355 81.98974609 36.72473335 C97.08016471 36.45430583 109.58389971 38.16556226 121.71484375 47.90234375 C133.38401434 59.41729623 137.25082968 71.39812331 137.36639917 87.55454099 C137.37222059 89.94761392 137.36848659 92.34056737 137.36450195 94.73364258 C137.36885569 96.46769936 137.37404104 98.20175423 137.37998962 99.93580627 C137.39332058 104.62190982 137.39396483 109.30793242 137.39142632 113.99405122 C137.39035246 117.91766745 137.39525065 121.84126759 137.40003175 125.76488036 C137.41110682 135.02824317 137.4115758 144.29156542 137.40551758 153.55493164 C137.39948079 163.08433189 137.41178592 172.61358437 137.43308765 182.14295942 C137.45075064 190.34882601 137.45669756 198.55464577 137.4534499 206.76053065 C137.45164417 211.6507718 137.45420182 216.54090757 137.46816444 221.43113136 C137.48081464 226.03347186 137.47873124 230.63558345 137.46575356 235.23792076 C137.46340369 236.91759191 137.46606473 238.59727954 137.47437668 240.27693176 C137.55252095 257.30916804 135.29525644 271.49843778 123.3203125 284.39453125 C114.09648637 292.95605112 101.83747466 297.55624179 89.33473206 297.43901062 C87.33892047 297.35809552 85.34351633 297.26664617 83.34858704 297.16630554 C78.74605714 296.94110603 74.14267976 296.85476764 69.53588867 296.7590332 C67.12107019 296.68812843 64.70705265 296.57960519 62.2956543 296.43286133 C48.71906781 295.29138637 48.71906781 295.29138637 36.72311401 300.46972656 C32.36715744 305.6873157 29.37958937 311.56502125 26.46914673 317.67507935 C24.55026187 321.55619666 22.21244965 325.05178966 19.7421875 328.59765625 C18.94318596 329.7828608 18.14562143 330.96903557 17.34960938 332.15625 C16.96716064 332.72102051 16.58471191 333.28579102 16.19067383 333.86767578 C14.98576366 335.65139798 13.79290822 337.44286953 12.59960938 339.234375 C11.81451385 340.39761612 11.0287357 341.5603969 10.2421875 342.72265625 C9.56148193 343.73473145 8.88077637 344.74680664 8.17944336 345.78955078 C5.62688577 349.05756411 3.06962318 352.11933251 -1.1484375 352.85546875 C-3.06901042 352.72526042 -4.98958333 352.59505208 -6.91015625 352.46484375 C-6.91015625 351.80484375 -6.91015625 351.14484375 -6.91015625 350.46484375 C-7.90015625 350.13484375 -8.89015625 349.80484375 -9.91015625 349.46484375 C-11.33822632 347.72128296 -11.33822632 347.72128296 -12.83349609 345.42333984 C-13.39773285 344.56509613 -13.9619696 343.70685242 -14.54330444 342.82260132 C-15.44806015 341.41961288 -15.44806015 341.41961288 -16.37109375 339.98828125 C-16.99867584 339.02967194 -17.62625793 338.07106262 -18.27285767 337.08340454 C-20.28467936 334.00717883 -22.28521653 330.92380459 -24.28515625 327.83984375 C-26.28022591 324.77884238 -28.27757849 321.71934636 -30.27603149 318.66055298 C-31.51953905 316.75557349 -32.76068421 314.84904918 -33.99911499 312.94076538 C-36.53254545 309.04583909 -39.07932074 305.19280334 -41.83056641 301.44775391 C-43.91015625 298.46484375 -43.91015625 298.46484375 -43.91015625 296.46484375 C-44.66024963 296.47594681 -45.41034302 296.48704987 -46.1831665 296.49848938 C-53.30195627 296.59927396 -60.42049299 296.67510109 -67.53979874 296.72390461 C-71.19872071 296.74984014 -74.8570462 296.78493681 -78.515625 296.84204102 C-82.05592332 296.89694417 -85.59565325 296.92638443 -89.13634491 296.93922997 C-91.12366003 296.95276989 -93.110751 296.99170726 -95.09771729 297.03132629 C-106.06766369 297.03466628 -115.12043211 294.16177643 -123.91015625 287.46484375 C-124.90015625 286.74296875 -125.89015625 286.02109375 -126.91015625 285.27734375 C-135.97582641 277.44252176 -140.53028672 265.07286687 -141.91015625 253.46484375 C-141.99924365 251.00374147 -142.04060646 248.54062337 -142.04386902 246.07791138 C-142.04613458 245.36774238 -142.04840013 244.65757339 -142.05073434 243.92588413 C-142.05702657 241.56401654 -142.05624807 239.20220704 -142.05541992 236.84033203 C-142.05841437 235.13963752 -142.06181756 233.43894368 -142.06559753 231.73825073 C-142.07441198 227.13076623 -142.07677455 222.52330032 -142.07741332 217.9158082 C-142.0781252 215.0343637 -142.08026211 212.15292389 -142.08291054 209.27148056 C-142.09215502 199.21109468 -142.09624649 189.15072202 -142.09545898 179.09033203 C-142.09485821 169.72511115 -142.10541225 160.35994787 -142.12120265 150.99474156 C-142.13429327 142.94271898 -142.13964225 134.89071519 -142.13900357 126.83868206 C-142.13874907 122.03461675 -142.1415744 117.23060267 -142.15218163 112.426548 C-142.1618884 107.90720334 -142.16192413 103.38795864 -142.15466499 98.86861038 C-142.1536224 97.21467441 -142.15596261 95.56073213 -142.16202545 93.90680695 C-142.21876115 77.35085909 -139.83159204 61.95870756 -127.91015625 49.46484375 C-117.65936199 39.93225801 -104.53456553 36.11295542 -90.81030273 36.23779297 C-89.52086006 36.23735489 -89.52086006 36.23735489 -88.20536804 36.23690796 C-85.39722175 36.23828822 -82.58934926 36.25378729 -79.78125 36.26953125 C-77.82113286 36.27326602 -75.86101384 36.2761108 -73.90089417 36.27810669 C-68.76678218 36.28570657 -63.63278514 36.30532344 -58.49871826 36.32751465 C-53.24981236 36.34805194 -48.00088771 36.3571252 -42.75195312 36.3671875 C-32.47130394 36.38857303 -22.19073969 36.42266454 -11.91015625 36.46484375 C-11.93634033 35.58747559 -11.96252441 34.71010742 -11.98950195 33.80615234 C-12.07506534 30.52961618 -12.13756492 27.25427817 -12.18481445 23.97705078 C-12.2098555 22.56279693 -12.24389967 21.14867118 -12.28735352 19.73486328 C-12.68486874 6.46253147 -12.68486874 6.46253147 -9.53540039 2.54931641 C-6.03698221 -0.22846602 -4.29323282 -0.29288277 0 0 Z " fill="#5372FF" transform="translate(582.91015625,59.53515625)"/>
<path d="M0 0 C0.80832311 -0.0060911 1.61664622 -0.01218221 2.44946396 -0.01845789 C5.13768936 -0.03500685 7.82543688 -0.03032377 10.51370239 -0.0255127 C12.44937631 -0.03285772 14.38504585 -0.04144521 16.32070923 -0.05117798 C21.56458029 -0.07335663 26.80829404 -0.07632649 32.05220556 -0.07443047 C36.43579755 -0.0743106 40.81935641 -0.08288131 45.20293915 -0.09120798 C55.54776041 -0.11042883 65.89250098 -0.11333062 76.23733521 -0.10656738 C86.89609253 -0.09992695 97.55450377 -0.12279424 108.21319091 -0.15988111 C117.37693486 -0.19060503 126.54056763 -0.20193523 135.70436203 -0.1980443 C141.17196021 -0.19597965 146.639289 -0.20141241 152.10683823 -0.22593689 C157.25014305 -0.2482459 162.39288615 -0.24629145 167.53619385 -0.22600937 C169.41869674 -0.22260673 171.30123775 -0.22765611 173.18368912 -0.24199295 C191.33755989 -0.37066329 191.33755989 -0.37066329 199.58840942 5.39440918 C200.98059692 6.29159668 200.98059692 6.29159668 202.40090942 7.20690918 C210.11951702 14.92551677 211.80953782 23.66209461 211.83726692 34.25241852 C211.8264726 35.95175663 211.8264726 35.95175663 211.81546021 37.6854248 C211.81570127 38.91550011 211.81594234 40.14557541 211.81619072 41.41292572 C211.81520129 44.04957823 211.8106839 46.68591146 211.79956055 49.32250977 C211.78451009 53.10269813 211.77934657 56.88274873 211.77761841 60.66296387 C211.76715302 69.7401315 211.7392305 78.81727223 211.71340942 87.89440918 C211.67215942 108.18940918 211.63090942 128.48440918 211.58840942 149.39440918 C131.72840942 149.39440918 51.86840942 149.39440918 -30.41159058 149.39440918 C-30.51471558 128.48065918 -30.61784058 107.56690918 -30.72409058 86.01940918 C-30.7696106 79.42794922 -30.81513062 72.83648926 -30.86203003 66.04528809 C-30.88461304 57.9654541 -30.88461304 57.9654541 -30.8888092 54.17697144 C-30.89646346 51.54359148 -30.9121016 48.91143124 -30.93946838 46.27828979 C-30.98048191 42.27852247 -30.98111576 38.27964024 -30.97921753 34.27966309 C-30.99720807 33.11649378 -31.01519861 31.95332447 -31.03373432 30.75490761 C-30.97842295 22.01323346 -28.85102806 15.53778898 -23.23580933 8.77331543 C-22.53069214 8.17390137 -21.82557495 7.5744873 -21.09909058 6.95690918 C-20.40170776 6.33944824 -19.70432495 5.7219873 -18.98580933 5.08581543 C-12.87010936 1.06745718 -7.14289293 -0.05140839 0 0 Z " fill="#FEFEFF" transform="translate(490.4115905761719,114.6055908203125)"/>
<path d="M0 0 C13.2 0 26.4 0 40 0 C40 66.99 40 133.98 40 203 C29.77 203 19.54 203 9 203 C5.535 194.585 5.535 194.585 2 186 C-2.29661576 187.07415394 -2.66129498 187.41278979 -5.1875 190.6875 C-12.82138541 199.76695095 -23.31566285 204.6710947 -35 206 C-49.74820109 207.00182658 -62.29377528 204.34413783 -74 195 C-88.83313039 181.37071788 -94.97949155 162.77235128 -96 143 C-96.16118042 137.93720784 -96.22400412 132.87767304 -96.25 127.8125 C-96.2593457 126.55381104 -96.26869141 125.29512207 -96.27832031 123.99829102 C-96.2091419 103.67979322 -91.70453047 84.79194462 -77.6875 69.47265625 C-66.604402 58.79806988 -54.00420132 54.58444271 -38.93725586 54.70678711 C-23.32379465 55.04007415 -12.28056791 60.16471129 -1.36328125 71.30078125 C0 73 0 73 0 75 C0.66 75 1.32 75 2 75 C1.85789093 74.30722961 1.71578186 73.61445923 1.56936646 72.9006958 C0.00204604 64.55681998 -0.26177253 56.52043172 -0.1953125 48.046875 C-0.1915712 46.65155238 -0.18872953 45.25622709 -0.18673706 43.86090088 C-0.17918834 40.2310632 -0.15961797 36.60139174 -0.1373291 32.97161865 C-0.11667911 29.25063362 -0.10758438 25.52962029 -0.09765625 21.80859375 C-0.07742899 14.53891686 -0.03826154 7.26969331 0 0 Z " fill="#F9943D" transform="translate(311,351)"/>
<path d="M0 0 C0.86825912 0.00222061 1.73651825 0.00444122 2.63108826 0.00672913 C3.61202957 0.00680466 4.59297089 0.00688019 5.6036377 0.00695801 C6.6702916 0.01211929 7.7369455 0.01728058 8.83592224 0.02259827 C10.46520912 0.02472069 10.46520912 0.02472069 12.12741089 0.02688599 C15.61230674 0.03250403 19.09713941 0.04505959 22.58201599 0.05775452 C24.93813486 0.06276719 27.29425473 0.0673305 29.65037537 0.07142639 C35.44011063 0.08247933 41.2298088 0.09923501 47.01951599 0.12025452 C50.59917484 9.51779471 54.04044304 18.92755639 57.14451599 28.49525452 C59.25827622 35.00631514 61.48794553 41.40242346 64.07762146 47.73988342 C65.55752446 51.47991821 66.78620224 55.29333601 68.01951599 59.12025452 C69.84955822 64.7061559 71.76774869 70.19958465 74.01951599 75.63197327 C77.9621273 85.44229906 81.19181438 95.54200765 84.48435974 105.58509827 C86.7749916 112.55605234 89.08147398 119.46727235 91.89060974 126.24916077 C96.15280048 137.08898842 99.78716145 148.1790727 103.13279724 159.33119202 C104.20752211 162.71160414 105.51530992 165.95409266 106.87107849 169.22962952 C108.43261022 173.16001551 109.85498246 177.1349745 111.26951599 181.12025452 C111.54005798 181.87532288 111.81059998 182.63039124 112.08934021 183.40834045 C114.01951599 188.87945043 114.01951599 188.87945043 114.01951599 191.12025452 C99.82951599 191.12025452 85.63951599 191.12025452 71.01951599 191.12025452 C69.86451599 187.59337952 68.70951599 184.06650452 67.51951599 180.43275452 C66.97134216 178.77820251 66.97134216 178.77820251 66.41209412 177.09022522 C65.98573669 175.76897644 65.98573669 175.76897644 65.55076599 174.42103577 C65.25750427 173.52554016 64.96424255 172.63004456 64.66209412 171.70741272 C64.00810632 169.07431673 63.90031535 166.82142615 64.01951599 164.12025452 C63.35951599 164.12025452 62.69951599 164.12025452 62.01951599 164.12025452 C61.74236755 163.06064514 61.46521912 162.00103577 61.17967224 160.90931702 C60.813902 159.52126583 60.44801027 158.13324665 60.08201599 156.74525452 C59.80841248 155.6972467 59.80841248 155.6972467 59.52928162 154.62806702 C58.5343909 150.78070354 58.5343909 150.78070354 57.01951599 147.12025452 C33.91951599 147.12025452 10.81951599 147.12025452 -12.98048401 147.12025452 C-14.30048401 152.07025452 -15.62048401 157.02025452 -16.98048401 162.12025452 C-17.95180888 164.7974992 -18.94783256 167.46606121 -19.98048401 170.12025452 C-21.36451332 174.49548895 -22.62586686 178.90716965 -23.90626526 183.31361389 C-24.16021057 184.17664124 -24.41415588 185.03966858 -24.67579651 185.92884827 C-25.01635071 187.10145203 -25.01635071 187.10145203 -25.36378479 188.29774475 C-25.98048401 190.12025452 -25.98048401 190.12025452 -26.98048401 191.12025452 C-30.08299601 191.20899586 -33.16316521 191.23543907 -36.26564026 191.21791077 C-37.1964592 191.21649582 -38.12727814 191.21508087 -39.08630371 191.21362305 C-42.07189592 191.20800624 -45.0574143 191.19545091 -48.04298401 191.18275452 C-50.06186314 191.17774168 -52.08074344 191.1731784 -54.09962463 191.16908264 C-59.05993972 191.15803135 -64.02019933 191.14075547 -68.98048401 191.12025452 C-66.98423586 181.70233726 -66.98423586 181.70233726 -65.35939026 177.18275452 C-65.06355042 176.35002014 -64.76771057 175.51728577 -64.46290588 174.65931702 C-64.15933167 173.82142639 -63.85575745 172.98353577 -63.54298401 172.12025452 C-62.93946227 170.43298943 -62.33659334 168.74549069 -61.73439026 167.05775452 C-61.29111389 165.82097961 -61.29111389 165.82097961 -60.83888245 164.55921936 C-60.01792705 162.22664131 -59.23745562 159.88455988 -58.46876526 157.53431702 C-57.0096401 153.11965225 -55.32817056 148.81252774 -53.60548401 144.49525452 C-50.43845432 136.45260013 -47.63793717 128.34695772 -44.98048401 120.12025452 C-40.31786034 105.79753872 -40.31786034 105.79753872 -38.04298401 100.30775452 C-35.79688767 94.87893057 -34.02386679 89.30528358 -32.19606018 83.72572327 C-30.60950824 78.91427192 -28.86131026 74.22424166 -26.91407776 69.54603577 C-25.35391398 65.49222109 -24.16732454 61.32509096 -22.91798401 57.16712952 C-21.4165684 52.28752879 -19.6434306 47.59026653 -17.54298401 42.93275452 C-15.67826038 38.65258577 -14.4280108 34.19000942 -13.08204651 29.72572327 C-4.07569113 0.24747499 -4.07569113 0.24747499 0 0 Z " fill="#030203" transform="translate(692.9804840087891,362.87974548339844)"/>
<path d="M0 0 C79.86 0 159.72 0 242 0 C242 39.92894737 242 39.92894737 233 49 C226.90454962 53.64592254 221.20992063 56.26050653 213.46899414 56.20776367 C211.5165554 56.20367744 211.5165554 56.20367744 209.52467346 56.19950867 C208.83402864 56.19396154 208.14338383 56.18841442 207.43181038 56.1826992 C205.25785021 56.16778137 203.08450188 56.16946411 200.9105072 56.17634583 C194.73221416 56.19512972 188.55440095 56.20160795 182.3762207 56.15454102 C178.58988754 56.12689369 174.80489434 56.1333134 171.0185833 56.16155434 C169.58053121 56.16580333 168.14238158 56.15739062 166.70448494 56.1358242 C159.01144329 55.79271532 159.01144329 55.79271532 151.96731567 58.29119873 C150.35353774 60.09709075 149.20082094 61.8985213 148 64 C146.99229602 65.45597581 145.98003215 66.90880339 144.96386719 68.35888672 C143.9036635 69.96282884 142.84818077 71.5698992 141.796875 73.1796875 C140.9510788 74.45974167 140.9510788 74.45974167 140.0881958 75.76565552 C138.30425889 78.46581109 136.52640678 81.16988544 134.75 83.875 C132.39587769 87.45922699 130.03575991 91.03939392 127.671875 94.6171875 C127.13230164 95.44314423 126.59272827 96.26910095 126.0368042 97.12008667 C125.53578186 97.87822662 125.03475952 98.63636658 124.51855469 99.41748047 C124.07920593 100.08697723 123.63985718 100.756474 123.18719482 101.44625854 C122 103 122 103 120 104 C119.47168327 103.18313972 119.47168327 103.18313972 118.93269348 102.34977722 C115.26277312 96.68011109 111.57801821 91.02030098 107.88452148 85.3659668 C106.50829843 83.25485003 105.13586944 81.14125485 103.76733398 79.02514648 C101.79884659 75.98280887 99.81685887 72.94966354 97.83203125 69.91796875 C97.22349808 68.97100632 96.6149649 68.02404388 95.98799133 67.04838562 C95.40776718 66.16769913 94.82754303 65.28701263 94.22973633 64.37963867 C93.7256575 63.60464523 93.22157867 62.82965179 92.70222473 62.03117371 C89.90330564 58.69137329 87.3691469 57.17137898 83.02960205 56.62818909 C81.93089783 56.62915085 80.8321936 56.63011261 79.70019531 56.63110352 C78.44829407 56.62422012 77.19639282 56.61733673 75.90655518 56.61024475 C75.24237831 56.61342272 74.57820145 56.61660069 73.89389801 56.61987495 C71.79880761 56.62903442 69.70460304 56.61870578 67.60955811 56.60325623 C61.65573428 56.56330174 55.70198255 56.56194427 49.74804688 56.56420898 C46.09811253 56.5642604 42.44865446 56.54493657 38.79885101 56.51487541 C36.74865141 56.50414454 34.69939886 56.5161252 32.64923096 56.52870178 C21.94250997 56.44372984 14.6267178 54.23963557 6.7265625 46.9375 C-4.72204596 34.09019277 0 16.06259018 0 0 Z " fill="#FDFDFF" transform="translate(460,282)"/>
<path d="M0 0 C1.36298721 -0.00422974 1.36298721 -0.00422974 2.75350952 -0.00854492 C4.26057968 -0.00550858 4.26057968 -0.00550858 5.7980957 -0.00241089 C7.37598373 -0.00503937 7.37598373 -0.00503937 8.98574829 -0.00772095 C12.48180769 -0.01214179 15.97781699 -0.00920065 19.47387695 -0.00582886 C21.8914389 -0.00650183 24.30900078 -0.0074718 26.7265625 -0.00872803 C31.80086916 -0.01020532 36.87515826 -0.00804945 41.94946289 -0.00338745 C48.47022398 0.00230985 54.99094391 -0.00096899 61.51170349 -0.00695992 C66.50606601 -0.01056469 71.50041869 -0.00942733 76.49478149 -0.00683212 C78.89987188 -0.00616262 81.30496313 -0.00699207 83.71005249 -0.00931168 C87.06494531 -0.01183683 90.41977046 -0.00799953 93.7746582 -0.00241089 C94.77937164 -0.00443512 95.78408508 -0.00645935 96.81924438 -0.00854492 C97.72790253 -0.0057251 98.63656067 -0.00290527 99.57275391 0 C100.36696243 0.00037703 101.16117096 0.00075405 101.97944641 0.0011425 C103.78637695 0.12698364 103.78637695 0.12698364 104.78637695 1.12698364 C104.88715815 3.49096833 104.92610911 5.82509675 104.91918945 8.18948364 C104.92014618 8.89597046 104.92110291 9.60245728 104.92208862 10.33035278 C104.92277028 11.82669158 104.920917 13.32303331 104.91674805 14.81936646 C104.91139953 17.11728521 104.91669346 19.4150085 104.9230957 21.71292114 C104.92243492 23.16344241 104.92115375 24.61396355 104.91918945 26.06448364 C104.92121368 26.75614624 104.92323792 27.44780884 104.92532349 28.16043091 C104.90132919 33.0120314 104.90132919 33.0120314 103.78637695 34.12698364 C101.63894147 34.2212396 99.4883667 34.24441012 97.33886719 34.24050903 C96.32915359 34.24072807 96.32915359 34.24072807 95.29904175 34.24095154 C93.06431911 34.24025243 90.82967886 34.23246017 88.5949707 34.22463989 C87.04940334 34.22277571 85.50383538 34.22135181 83.95826721 34.22035217 C79.88280619 34.21652704 75.80738059 34.20669681 71.73193359 34.19564819 C66.84609967 34.18363931 61.96025393 34.17903181 57.07440948 34.17319489 C49.64504064 34.16348504 42.21574958 34.14432848 34.78637695 34.12698364 C35.28137695 54.42198364 35.28137695 54.42198364 35.78637695 75.12698364 C67.46637695 75.62198364 67.46637695 75.62198364 99.78637695 76.12698364 C99.78637695 87.01698364 99.78637695 97.90698364 99.78637695 109.12698364 C78.33637695 109.12698364 56.88637695 109.12698364 34.78637695 109.12698364 C34.78637695 125.29698364 34.78637695 141.46698364 34.78637695 158.12698364 C57.88637695 158.12698364 80.98637695 158.12698364 104.78637695 158.12698364 C104.78637695 169.01698364 104.78637695 179.90698364 104.78637695 191.12698364 C68.48637695 191.12698364 32.18637695 191.12698364 -5.21362305 191.12698364 C-5.25392608 143.520144 -5.25392608 143.520144 -5.26245117 123.63674927 C-5.26839481 109.88422271 -5.27539828 96.13170225 -5.2890625 82.37918091 C-5.29900744 72.36523177 -5.30547602 62.35128756 -5.30771154 52.33733362 C-5.30901897 47.03152922 -5.31210686 41.72573893 -5.3193531 36.41993904 C-5.32611033 31.43207593 -5.32824062 26.44423284 -5.32673073 21.45636559 C-5.32700719 19.62008175 -5.32901407 17.78379729 -5.33282852 15.9475174 C-5.33776113 13.45177748 -5.33662295 10.9561144 -5.33387756 8.46037292 C-5.3367904 7.72400559 -5.33970325 6.98763826 -5.34270436 6.22895676 C-5.32402938 0.00252742 -5.32402938 0.00252742 0 0 Z " fill="#F9943D" transform="translate(82.213623046875,362.8730163574219)"/>
<path d="M0 0 C12.87 0 25.74 0 39 0 C39.01458252 2.78469727 39.02916504 5.56939453 39.04418945 8.43847656 C39.09469369 17.67459008 39.16131621 26.91053781 39.23571491 36.14648819 C39.2803012 41.74217518 39.31958291 47.33779133 39.34643555 52.93359375 C39.37258599 58.34133239 39.41307052 63.74879668 39.46318626 69.15636444 C39.47977591 71.21181557 39.49133909 73.26731407 39.49761391 75.32282257 C39.06401936 95.30668508 39.06401936 95.30668508 47.98828125 112.4765625 C54.5561209 117.45026631 63.20463173 116.63817004 71 116 C77.0667969 114.67561427 81.9397914 112.24851665 85.69140625 107.2109375 C90.12438461 99.72118898 92.23722559 92.22231283 93.11474609 83.65869141 C93.23905786 82.48604705 93.23905786 82.48604705 93.36588097 81.28971291 C94.19157156 72.95476016 94.35083463 64.64300376 94.4140625 56.2734375 C94.43284671 54.6624765 94.45242499 53.0515246 94.4727478 51.44058228 C94.52331136 47.26844736 94.56333394 43.09628078 94.60089111 38.92401123 C94.64141581 34.63937043 94.69228268 30.35485249 94.7421875 26.0703125 C94.838045 17.7136267 94.92272753 9.35687826 95 1 C100.39346988 0.97535151 105.78690725 0.95716469 111.18041992 0.94506836 C113.01668875 0.94002769 114.85295354 0.93319523 116.68920898 0.92456055 C119.32276401 0.91248328 121.95626616 0.90676919 124.58984375 0.90234375 C125.41588608 0.89718246 126.24192841 0.89202118 127.09300232 0.88670349 C129.06236368 0.88650795 131.03161614 0.93795848 133 1 C134 2 134 2 134.12304783 4.3719492 C134.12212604 5.43293292 134.12120424 6.49391665 134.12025452 7.58705139 C134.12231651 9.40657066 134.12231651 9.40657066 134.12442017 11.2628479 C134.12088056 12.61932397 134.11724575 13.9757998 134.11352539 15.33227539 C134.11324352 16.75112404 134.11340124 18.16997284 134.1139679 19.58882141 C134.11425589 23.45228801 134.1083589 27.31572383 134.10139394 31.17918324 C134.09516067 35.21242573 134.09455662 39.24566885 134.09336853 43.27891541 C134.09025514 50.92165468 134.08204164 58.56437973 134.07201904 66.20711273 C134.06085816 74.90588019 134.05534752 83.60464831 134.05032361 92.30342114 C134.03985903 110.20229048 134.02151345 128.1011403 134 146 C124.1 146 114.2 146 104 146 C99.5 134.75 99.5 134.75 99 128 C97.68 128 96.36 128 95 128 C94.773125 128.556875 94.54625 129.11375 94.3125 129.6875 C88.29485494 140.29001749 76.12696627 144.8563218 65 148 C58.40097264 149.3959481 51.71259015 149.1686177 45 149 C43.69289063 148.97486328 43.69289063 148.97486328 42.359375 148.94921875 C30.73430007 148.29296452 18.77981694 142.3570015 10.8125 133.875 C2.02145447 122.78212082 -0.328822 110.73512536 -0.22705078 96.95068359 C-0.22734283 95.89583771 -0.22763489 94.84099182 -0.22793579 93.75418091 C-0.22655356 90.30217982 -0.21104475 86.85040041 -0.1953125 83.3984375 C-0.19157843 80.99134438 -0.18873332 78.58424973 -0.18673706 76.17715454 C-0.17913161 69.86761212 -0.15950979 63.558163 -0.1373291 57.24865723 C-0.11680395 50.7998989 -0.10772112 44.35112538 -0.09765625 37.90234375 C-0.07626086 25.26818175 -0.04110403 12.63411326 0 0 Z " fill="#F9943D" transform="translate(392,408)"/>
<path d="M0 0 C12.87 0 25.74 0 39 0 C39 47.85 39 95.7 39 145 C26.13 145 13.26 145 0 145 C0 97.15 0 49.3 0 0 Z " fill="#020203" transform="translate(829,409)"/>
<path d="M0 0 C6.89059972 2.93432294 10.52477076 7.06413624 13.5625 13.8515625 C19.75093329 30.27200765 20.38795146 49.71003499 15.0625 66.5 C14.8459375 67.26441406 14.629375 68.02882813 14.40625 68.81640625 C12.45476129 74.93804049 9.35525061 79.58205763 3.7890625 82.82421875 C-4.36863668 86.31512606 -14.99973585 87.52403424 -23.52734375 84.6171875 C-25.60327462 83.41386481 -27.21142186 82.16292894 -28.9375 80.5 C-29.48664063 79.98050781 -30.03578125 79.46101562 -30.6015625 78.92578125 C-39.63164638 69.3841409 -41.31108809 56.99847589 -41.30810547 44.38647461 C-41.31245389 42.33426284 -41.34877211 40.28425101 -41.38671875 38.23242188 C-41.49324748 25.84310206 -38.89383393 15.21292713 -30.9375 5.5 C-22.15801505 -2.8405107 -11.27696551 -3.50458182 0 0 Z " fill="#FEFCFD" transform="translate(295.9375,439.5)"/>
<path d="M0 0 C0.99 0.33 1.98 0.66 3 1 C4.05566406 3.48657227 4.05566406 3.48657227 5.015625 6.81640625 C5.37648193 8.04488281 5.73733887 9.27335937 6.10913086 10.5390625 C6.48964331 11.88014515 6.86992814 13.22129241 7.25 14.5625 C7.64541634 15.92351155 8.04199115 17.28418704 8.43969727 18.64453125 C9.44645279 22.09746765 10.43947049 25.5541923 11.42926025 29.01202393 C12.61580456 33.14494388 13.82572675 37.2710662 15.03222656 41.39819336 C15.62163221 43.41771836 16.20836016 45.43802741 16.79199219 47.45922852 C18.10699886 52.00742939 19.47882565 56.515499 21 61 C21.50689936 62.68544038 22.00729835 64.37285467 22.5 66.0625 C23.28867389 68.73678508 24.10164379 71.2407353 25.1875 73.8125 C26 76 26 76 26 81 C9.83 81 -6.34 81 -23 81 C-22.00425236 76.02126178 -20.84321664 71.11475125 -19.625 66.1875 C-19.31175781 64.89102539 -19.31175781 64.89102539 -18.9921875 63.56835938 C-17.83807116 58.90615161 -16.50417477 54.44029134 -14.75927734 49.96655273 C-11.63112669 41.86454195 -9.36466411 33.47244212 -7 25.125 C-6.65710938 23.92230469 -6.31421875 22.71960938 -5.9609375 21.48046875 C-3.92757953 14.33267223 -1.93716024 7.17446373 0 0 Z " fill="#F9FAF9" transform="translate(714,394)"/>
<path d="M0 0 C2.86942113 2.26533247 3.83907612 3.51722837 5 7 C5.11119588 9.51317672 5.16761483 11.99938491 5.17700195 14.51318359 C5.18357315 15.27612228 5.19014435 16.03906097 5.19691467 16.82511902 C5.21662362 19.34955953 5.22830373 21.87394066 5.23828125 24.3984375 C5.24235678 25.26101795 5.2464323 26.1235984 5.25063133 27.01231766 C5.27147995 31.57624318 5.28578794 36.14013873 5.29516602 40.70410156 C5.30623928 45.41755249 5.34065297 50.13053248 5.38033772 54.84381676 C5.40647775 58.46923706 5.41485542 62.09454456 5.41844749 65.72005081 C5.42331876 67.45758883 5.43494815 69.19512164 5.45348549 70.9325676 C5.47782629 73.36476823 5.47692187 75.79574228 5.4699707 78.22802734 C5.48278076 78.94404617 5.49559082 79.660065 5.50878906 80.39778137 C5.47206909 83.92633396 5.06133161 85.90140563 3.18156433 88.92324829 C0.15584806 91.8035949 -1.86385716 92 -6 92 C-9.44789338 90.82901734 -11.40011139 90.11754144 -13.14881897 86.85984802 C-14.19856787 83.33284001 -14.30294426 80.01329821 -14.30639648 76.36743164 C-14.31472 75.61556076 -14.32304352 74.86368988 -14.33161926 74.08903503 C-14.35564246 71.6126889 -14.36448096 69.13660642 -14.37109375 66.66015625 C-14.38006448 64.93289615 -14.3891864 63.20563683 -14.39845276 61.4783783 C-14.41492338 57.86129877 -14.42263961 54.24431161 -14.42553711 50.62719727 C-14.43092531 45.99893878 -14.46863108 41.37155124 -14.51428127 36.74353886 C-14.54406122 33.17724962 -14.55126083 29.61117015 -14.55226326 26.04476738 C-14.55646212 24.33874959 -14.56888309 22.63273098 -14.58978081 20.92683601 C-14.61672212 18.53789693 -14.61186381 16.15097771 -14.59936523 13.76196289 C-14.61419952 13.06203217 -14.62903381 12.36210144 -14.64431763 11.64096069 C-14.56143787 6.06117394 -12.80045273 3.78552675 -9 0 C-5.81452856 -1.59273572 -3.39809153 -0.76164121 0 0 Z " fill="#5674FF" transform="translate(399,153)"/>
<path d="M0 0 C3.66731278 2.90985145 5.70733527 5.06580692 7.09765625 9.640625 C7.79560562 16.71982573 8.09180289 24.46657439 4.09765625 30.640625 C-0.51691193 35.84949363 -5.29894415 38.32206958 -12.3046875 38.94140625 C-20.70570416 38.96925492 -26.13276152 38.89617329 -32.65234375 33.265625 C-36.98720194 28.20829045 -38.43887903 24.50091932 -38.33984375 17.828125 C-38.33154541 17.11615967 -38.32324707 16.40419434 -38.31469727 15.6706543 C-38.10413462 9.12822566 -37.06104067 4.60471026 -32.25390625 0.09375 C-23.25781964 -6.89884134 -9.10675008 -6.50749287 0 0 Z " fill="#040304" transform="translate(600.90234375,518.359375)"/>
<path d="M0 0 C2.96858157 2.20740681 3.82865791 3.48597373 5 7 C5.11119588 9.51317672 5.16761483 11.99938491 5.17700195 14.51318359 C5.18357315 15.27612228 5.19014435 16.03906097 5.19691467 16.82511902 C5.21662362 19.34955953 5.22830373 21.87394066 5.23828125 24.3984375 C5.24235678 25.26101795 5.2464323 26.1235984 5.25063133 27.01231766 C5.27147995 31.57624318 5.28578794 36.14013873 5.29516602 40.70410156 C5.30623928 45.41755249 5.34065297 50.13053248 5.38033772 54.84381676 C5.40647775 58.46923706 5.41485542 62.09454456 5.41844749 65.72005081 C5.42331876 67.45758883 5.43494815 69.19512164 5.45348549 70.9325676 C5.47782629 73.36476823 5.47692187 75.79574228 5.4699707 78.22802734 C5.48278076 78.94404617 5.49559082 79.660065 5.50878906 80.39778137 C5.4588053 85.20089804 4.40264937 87.62799799 1 91 C-2.13871188 92.56935594 -4.53855822 92.35201103 -8 92 C-11.62601644 89.28290441 -12.86591372 87.78674587 -13.63491821 83.27464294 C-13.66446195 81.80895718 -13.66670543 80.34255967 -13.64697266 78.87670898 C-13.65573425 78.07285767 -13.66449585 77.26900635 -13.67352295 76.4407959 C-13.69547393 73.79200774 -13.68098187 71.14489792 -13.6640625 68.49609375 C-13.66743156 66.65193868 -13.67228494 64.80778578 -13.67855835 62.96363831 C-13.68592354 59.10257788 -13.67523451 55.24209654 -13.65185547 51.38110352 C-13.62334767 46.43194542 -13.63978625 41.4841418 -13.66971779 36.53503323 C-13.68778339 32.72855924 -13.68203652 28.92240658 -13.66907883 25.11592293 C-13.6657438 23.29106549 -13.66983531 21.46617887 -13.68147659 19.64135551 C-13.6941758 17.0914159 -13.67482472 14.54367243 -13.64697266 11.99389648 C-13.65709381 11.24002151 -13.66721497 10.48614655 -13.67764282 9.70942688 C-13.60008621 5.87729945 -13.31352348 4.32095163 -10.59066772 1.53358459 C-6.60139846 -0.82792315 -4.58862525 -0.58268257 0 0 Z " fill="#5271FF" transform="translate(771,153)"/>
<path d="M0 0 C4.14876655 2.8784078 6.43628704 6.11115466 7.6875 11 C8.55998397 17.30025268 8.17739525 22.78314037 4.95703125 28.34765625 C1.85092363 32.39037478 -2.59403936 34.4092047 -7.3125 36 C-15.30410871 36.82112109 -22.66704684 36.90018264 -29.3125 32 C-33.35188726 28.59841073 -35.13468736 25.83188376 -35.6484375 20.5390625 C-35.66132812 19.24742187 -35.67421875 17.95578125 -35.6875 16.625 C-35.71585938 15.33851563 -35.74421875 14.05203125 -35.7734375 12.7265625 C-35.2402773 8.41609786 -34.03007225 6.34432765 -31.3125 3 C-23.03034581 -3.25387153 -9.57183943 -4.7779031 0 0 Z " fill="#060506" transform="translate(862.3125,354)"/>
<path d="M0 0 C5.05547494 2.76620327 9.05138707 6.45723255 11.3125 11.8125 C12.15261446 17.73428244 11.62721426 22.82484397 8.65234375 28.0546875 C4.89152659 32.98870419 0.27974315 35.21324148 -5.73046875 36.12109375 C-11.54036758 36.47032264 -15.09391506 35.05877015 -19.734375 31.5703125 C-24.40949711 27.3627026 -25.9027487 23.66024858 -26.25 17.375 C-26.02687083 11.77368849 -24.44430116 7.96063462 -20.6875 3.8125 C-14.07756352 -1.34325045 -7.94505171 -2.55857597 0 0 Z " fill="#5473FF" transform="translate(643.6875,181.1875)"/>
<path d="M0 0 C4.20233644 2.36538698 7.80554247 5.50530212 9.359375 10.2265625 C10.40842401 15.99633207 10.67043798 21.50003375 8.0625 26.8125 C3.2331134 32.16398245 -0.86258834 35.10182164 -8.125 35.6875 C-13.33321061 35.50184146 -17.36851779 34.17761768 -21.20703125 30.5 C-25.81649538 25.3929766 -27.68388739 21.71446808 -27.59375 14.78515625 C-26.79950843 9.21643981 -23.26113918 5.04628144 -19.125 1.4375 C-13.32088609 -2.72632085 -6.46202942 -2.95512162 0 0 Z " fill="#5573FF" transform="translate(533.25,181.625)"/>
</svg>
