<svg width="33" height="33" viewBox="0 0 33 33" fill="none" xmlns="http://www.w3.org/2000/svg">
<path fill-rule="evenodd" clip-rule="evenodd" d="M26.7122 10.7132C26.7122 8.45233 24.88 6.62015 22.6191 6.62015H10.7122C8.45133 6.62015 6.61914 8.45233 6.61914 10.7132V22.6201C6.61914 24.881 8.45133 26.7132 10.7122 26.7132H22.6191C24.88 26.7132 26.7122 24.881 26.7122 22.6201V10.7132ZM19.6424 13.6899V19.6434C19.6424 20.2596 20.1425 20.7597 20.7587 20.7597C21.3749 20.7597 21.875 20.2596 21.875 19.6434V13.6899C21.875 13.0737 21.3749 12.5736 20.7587 12.5736C20.1425 12.5736 19.6424 13.0737 19.6424 13.6899ZM18.154 19.6434V15.1783C18.154 13.7405 16.9886 12.5736 15.5494 12.5736H14.061C12.6217 12.5736 11.4563 13.7405 11.4563 15.1783V19.6434C11.4563 20.2596 11.9564 20.7597 12.5726 20.7597C13.1888 20.7597 13.6889 20.2596 13.6889 19.6434V18.5271H15.9215V19.6434C15.9215 20.2596 16.4216 20.7597 17.0377 20.7597C17.6539 20.7597 18.154 20.2596 18.154 19.6434ZM13.6889 16.2946H15.9215V15.1783C15.9215 14.9729 15.7548 14.8062 15.5494 14.8062H14.061C13.8556 14.8062 13.6889 14.9729 13.6889 15.1783V16.2946Z" fill="#0D5EF4"/>
<path fill-rule="evenodd" clip-rule="evenodd" d="M25.5967 17.7829H31.5502C32.1664 17.7829 32.6665 17.2828 32.6665 16.6667C32.6665 16.0505 32.1664 15.5504 31.5502 15.5504H25.5967C24.9806 15.5504 24.4805 16.0505 24.4805 16.6667C24.4805 17.2828 24.9806 17.7829 25.5967 17.7829Z" fill="#0D5EF4"/>
<path fill-rule="evenodd" clip-rule="evenodd" d="M17.7814 7.73642V1.78294C17.7814 1.16675 17.2813 0.666656 16.6651 0.666656C16.0489 0.666656 15.5488 1.16675 15.5488 1.78294V7.73642C15.5488 8.35261 16.0489 8.8527 16.6651 8.8527C17.2813 8.8527 17.7814 8.35261 17.7814 7.73642Z" fill="#0D5EF4"/>
<path fill-rule="evenodd" clip-rule="evenodd" d="M15.5488 25.5969V31.5504C15.5488 32.1666 16.0489 32.6667 16.6651 32.6667C17.2813 32.6667 17.7814 32.1666 17.7814 31.5504V25.5969C17.7814 24.9807 17.2813 24.4806 16.6651 24.4806C16.0489 24.4806 15.5488 24.9807 15.5488 25.5969Z" fill="#0D5EF4"/>
<path fill-rule="evenodd" clip-rule="evenodd" d="M7.73578 15.5504H1.78229C1.16611 15.5504 0.666016 16.0505 0.666016 16.6667C0.666016 17.2828 1.16611 17.7829 1.78229 17.7829H7.73578C8.35197 17.7829 8.85206 17.2828 8.85206 16.6667C8.85206 16.0505 8.35197 15.5504 7.73578 15.5504Z" fill="#0D5EF4"/>
<path fill-rule="evenodd" clip-rule="evenodd" d="M25.5967 13.3178H29.3177C29.9339 13.3178 30.434 12.8177 30.434 12.2015C30.434 11.5854 29.9339 11.0853 29.3177 11.0853H25.5967C24.9806 11.0853 24.4805 11.5854 24.4805 12.2015C24.4805 12.8177 24.9806 13.3178 25.5967 13.3178Z" fill="#0D5EF4"/>
<path fill-rule="evenodd" clip-rule="evenodd" d="M13.3165 7.73641V4.01548C13.3165 3.39929 12.8164 2.8992 12.2003 2.8992C11.5841 2.8992 11.084 3.39929 11.084 4.01548V7.73641C11.084 8.3526 11.5841 8.85269 12.2003 8.85269C12.8164 8.85269 13.3165 8.3526 13.3165 7.73641Z" fill="#0D5EF4"/>
<path fill-rule="evenodd" clip-rule="evenodd" d="M11.084 25.5969V29.3178C11.084 29.934 11.5841 30.4341 12.2003 30.4341C12.8164 30.4341 13.3165 29.934 13.3165 29.3178V25.5969C13.3165 24.9807 12.8164 24.4806 12.2003 24.4806C11.5841 24.4806 11.084 24.9807 11.084 25.5969Z" fill="#0D5EF4"/>
<path fill-rule="evenodd" clip-rule="evenodd" d="M7.73565 11.0853H4.01472C3.39853 11.0853 2.89844 11.5854 2.89844 12.2015C2.89844 12.8177 3.39853 13.3178 4.01472 13.3178H7.73565C8.35183 13.3178 8.85193 12.8177 8.85193 12.2015C8.85193 11.5854 8.35183 11.0853 7.73565 11.0853Z" fill="#0D5EF4"/>
<path fill-rule="evenodd" clip-rule="evenodd" d="M25.5967 22.2481H29.3177C29.9339 22.2481 30.434 21.748 30.434 21.1318C30.434 20.5156 29.9339 20.0155 29.3177 20.0155H25.5967C24.9806 20.0155 24.4805 20.5156 24.4805 21.1318C24.4805 21.748 24.9806 22.2481 25.5967 22.2481Z" fill="#0D5EF4"/>
<path fill-rule="evenodd" clip-rule="evenodd" d="M22.2482 7.73641V4.01548C22.2482 3.39929 21.7481 2.8992 21.1319 2.8992C20.5157 2.8992 20.0156 3.39929 20.0156 4.01548V7.73641C20.0156 8.3526 20.5157 8.85269 21.1319 8.85269C21.7481 8.85269 22.2482 8.3526 22.2482 7.73641Z" fill="#0D5EF4"/>
<path fill-rule="evenodd" clip-rule="evenodd" d="M20.0156 25.5969V29.3178C20.0156 29.934 20.5157 30.4341 21.1319 30.4341C21.7481 30.4341 22.2482 29.934 22.2482 29.3178V25.5969C22.2482 24.9807 21.7481 24.4806 21.1319 24.4806C20.5157 24.4806 20.0156 24.9807 20.0156 25.5969Z" fill="#0D5EF4"/>
<path fill-rule="evenodd" clip-rule="evenodd" d="M7.73565 20.0155H4.01472C3.39853 20.0155 2.89844 20.5156 2.89844 21.1318C2.89844 21.748 3.39853 22.2481 4.01472 22.2481H7.73565C8.35183 22.2481 8.85193 21.748 8.85193 21.1318C8.85193 20.5156 8.35183 20.0155 7.73565 20.0155Z" fill="#0D5EF4"/>
</svg>
