<svg width="33" height="33" viewBox="0 0 33 33" fill="none" xmlns="http://www.w3.org/2000/svg">
<path fill-rule="evenodd" clip-rule="evenodd" d="M26.7131 10.7132C26.7131 8.45233 24.881 6.62015 22.6201 6.62015H10.7131C8.4523 6.62015 6.62012 8.45233 6.62012 10.7132V22.6201C6.62012 24.881 8.4523 26.7132 10.7131 26.7132H22.6201C24.881 26.7132 26.7131 24.881 26.7131 22.6201V10.7132ZM19.6434 13.6899V19.6434C19.6434 20.2596 20.1435 20.7597 20.7597 20.7597C21.3758 20.7597 21.8759 20.2596 21.8759 19.6434V13.6899C21.8759 13.0737 21.3758 12.5736 20.7597 12.5736C20.1435 12.5736 19.6434 13.0737 19.6434 13.6899ZM18.155 19.6434V15.1783C18.155 13.7405 16.9896 12.5736 15.5503 12.5736H14.062C12.6227 12.5736 11.4573 13.7405 11.4573 15.1783V19.6434C11.4573 20.2596 11.9574 20.7597 12.5736 20.7597C13.1898 20.7597 13.6899 20.2596 13.6899 19.6434V18.5271H15.9224V19.6434C15.9224 20.2596 16.4225 20.7597 17.0387 20.7597C17.6549 20.7597 18.155 20.2596 18.155 19.6434ZM13.6899 16.2946H15.9224V15.1783C15.9224 14.9729 15.7557 14.8062 15.5503 14.8062H14.062C13.8566 14.8062 13.6899 14.9729 13.6899 15.1783V16.2946Z" fill="#313B4E"/>
<path fill-rule="evenodd" clip-rule="evenodd" d="M25.5967 17.7829H31.5502C32.1664 17.7829 32.6665 17.2828 32.6665 16.6667C32.6665 16.0505 32.1664 15.5504 31.5502 15.5504H25.5967C24.9806 15.5504 24.4805 16.0505 24.4805 16.6667C24.4805 17.2828 24.9806 17.7829 25.5967 17.7829Z" fill="#313B4E"/>
<path fill-rule="evenodd" clip-rule="evenodd" d="M17.7829 7.73642V1.78294C17.7829 1.16675 17.2828 0.666656 16.6666 0.666656C16.0504 0.666656 15.5503 1.16675 15.5503 1.78294V7.73642C15.5503 8.35261 16.0504 8.8527 16.6666 8.8527C17.2828 8.8527 17.7829 8.35261 17.7829 7.73642Z" fill="#313B4E"/>
<path fill-rule="evenodd" clip-rule="evenodd" d="M15.5503 25.5969V31.5504C15.5503 32.1666 16.0504 32.6667 16.6666 32.6667C17.2828 32.6667 17.7829 32.1666 17.7829 31.5504V25.5969C17.7829 24.9807 17.2828 24.4806 16.6666 24.4806C16.0504 24.4806 15.5503 24.9807 15.5503 25.5969Z" fill="#313B4E"/>
<path fill-rule="evenodd" clip-rule="evenodd" d="M7.73627 15.5504H1.78278C1.1666 15.5504 0.666504 16.0505 0.666504 16.6667C0.666504 17.2828 1.1666 17.7829 1.78278 17.7829H7.73627C8.35246 17.7829 8.85255 17.2828 8.85255 16.6667C8.85255 16.0505 8.35246 15.5504 7.73627 15.5504Z" fill="#313B4E"/>
<path fill-rule="evenodd" clip-rule="evenodd" d="M25.5967 13.3178H29.3177C29.9339 13.3178 30.434 12.8177 30.434 12.2015C30.434 11.5854 29.9339 11.0853 29.3177 11.0853H25.5967C24.9806 11.0853 24.4805 11.5854 24.4805 12.2015C24.4805 12.8177 24.9806 13.3178 25.5967 13.3178Z" fill="#313B4E"/>
<path fill-rule="evenodd" clip-rule="evenodd" d="M13.3175 7.73641V4.01548C13.3175 3.39929 12.8174 2.8992 12.2012 2.8992C11.5851 2.8992 11.085 3.39929 11.085 4.01548V7.73641C11.085 8.3526 11.5851 8.85269 12.2012 8.85269C12.8174 8.85269 13.3175 8.3526 13.3175 7.73641Z" fill="#313B4E"/>
<path fill-rule="evenodd" clip-rule="evenodd" d="M11.085 25.5969V29.3178C11.085 29.934 11.5851 30.4341 12.2012 30.4341C12.8174 30.4341 13.3175 29.934 13.3175 29.3178V25.5969C13.3175 24.9807 12.8174 24.4806 12.2012 24.4806C11.5851 24.4806 11.085 24.9807 11.085 25.5969Z" fill="#313B4E"/>
<path fill-rule="evenodd" clip-rule="evenodd" d="M7.73614 11.0853H4.0152C3.39902 11.0853 2.89893 11.5854 2.89893 12.2015C2.89893 12.8177 3.39902 13.3178 4.0152 13.3178H7.73614C8.35232 13.3178 8.85241 12.8177 8.85241 12.2015C8.85241 11.5854 8.35232 11.0853 7.73614 11.0853Z" fill="#313B4E"/>
<path fill-rule="evenodd" clip-rule="evenodd" d="M25.5967 22.2481H29.3177C29.9339 22.2481 30.434 21.748 30.434 21.1318C30.434 20.5156 29.9339 20.0155 29.3177 20.0155H25.5967C24.9806 20.0155 24.4805 20.5156 24.4805 21.1318C24.4805 21.748 24.9806 22.2481 25.5967 22.2481Z" fill="#313B4E"/>
<path fill-rule="evenodd" clip-rule="evenodd" d="M22.2477 7.73641V4.01548C22.2477 3.39929 21.7476 2.8992 21.1314 2.8992C20.5152 2.8992 20.0151 3.39929 20.0151 4.01548V7.73641C20.0151 8.3526 20.5152 8.85269 21.1314 8.85269C21.7476 8.85269 22.2477 8.3526 22.2477 7.73641Z" fill="#313B4E"/>
<path fill-rule="evenodd" clip-rule="evenodd" d="M20.0151 25.5969V29.3178C20.0151 29.934 20.5152 30.4341 21.1314 30.4341C21.7476 30.4341 22.2477 29.934 22.2477 29.3178V25.5969C22.2477 24.9807 21.7476 24.4806 21.1314 24.4806C20.5152 24.4806 20.0151 24.9807 20.0151 25.5969Z" fill="#313B4E"/>
<path fill-rule="evenodd" clip-rule="evenodd" d="M7.73614 20.0155H4.0152C3.39902 20.0155 2.89893 20.5156 2.89893 21.1318C2.89893 21.748 3.39902 22.2481 4.0152 22.2481H7.73614C8.35232 22.2481 8.85241 21.748 8.85241 21.1318C8.85241 20.5156 8.35232 20.0155 7.73614 20.0155Z" fill="#313B4E"/>
</svg>
