<svg width="31" height="26" viewBox="0 0 31 26" fill="none" xmlns="http://www.w3.org/2000/svg">
<path d="M28.8217 3.96423L28.9125 3.86425L28.8217 3.96423C31.421 6.32418 31.4211 10.1584 28.8219 12.5183L17.1102 23.1513C15.2766 24.8159 12.8651 25.6502 10.4514 25.6504C8.03719 25.6506 5.62674 24.8163 3.79285 23.1513L3.70207 23.2513L3.79284 23.1513C2.01644 21.5387 1.04129 19.3981 1.04129 17.1235C1.04129 14.8489 2.01644 12.7083 3.79284 11.0956L3.70207 10.9956L3.79285 11.0956L15.5043 0.462562C15.9853 0.0258288 16.7702 0.0259015 17.2512 0.462562C17.7247 0.892459 17.7247 1.5835 17.2512 2.01339L5.5397 12.6464C4.22538 13.8397 3.4984 15.4298 3.4984 17.1235C3.4984 18.8172 4.22538 20.4072 5.5397 21.6004C8.24938 24.0605 12.6534 24.0606 15.3633 21.6004L15.2725 21.5004L15.3633 21.6004L27.075 10.9676L26.9843 10.8676L27.075 10.9676C28.7289 9.46583 28.7288 7.01687 27.0749 5.51515C26.2761 4.78999 25.2161 4.39229 24.0915 4.39229C22.967 4.39229 21.9069 4.78999 21.1081 5.51514L21.1989 5.61513L21.1081 5.51514L10.3605 15.2726C9.7699 15.8089 9.76991 16.6872 10.3606 17.2235L10.4514 17.1235L10.3606 17.2235C10.9438 17.7529 11.8875 17.753 12.4707 17.2234C12.4707 17.2234 12.4707 17.2234 12.4707 17.2234L19.5477 10.7981C20.0288 10.3614 20.8136 10.3614 21.2946 10.7981L21.3853 10.6981L21.2946 10.7981C21.7681 11.228 21.7681 11.9191 21.2946 12.349L14.2175 18.7742L14.3083 18.8742L14.2175 18.7742C12.6741 20.1756 10.1573 20.1757 8.61379 18.7744C7.07776 17.3798 7.07777 15.1164 8.6137 13.7219L19.3613 3.96423C20.623 2.81875 22.3022 2.18627 24.0915 2.18627C25.8808 2.18627 27.5601 2.81875 28.8217 3.96423Z" fill="#B1B1B1" stroke="white" stroke-width="0.270079"/>
</svg>
