<svg width="128" height="127" viewBox="0 0 128 127" fill="none" xmlns="http://www.w3.org/2000/svg">
<g opacity="0.2">
<path d="M101.182 37.5519L100.121 34.5056C99.9024 33.8743 99.5585 33.2937 99.1101 32.7984C98.6617 32.303 98.118 31.9033 97.5116 31.623C96.9018 31.3483 96.2432 31.1983 95.5746 31.1819C94.906 31.1654 94.2408 31.2829 93.6183 31.5273C88.0518 33.6368 82.6501 36.1577 77.4579 39.0692L75.5853 40.1655C73.6648 36.0416 70.3028 32.762 66.1325 30.9444C61.9621 29.1269 57.2712 28.8967 52.9429 30.2972C48.6146 31.6978 44.9478 34.6324 42.6327 38.5485C40.3177 42.4646 39.5143 47.092 40.3737 51.5593C40.4692 51.8335 40.5594 52.0924 40.6496 52.3514C34.0257 53.2764 27.4915 54.7582 21.1165 56.7811C20.4779 56.983 19.8862 57.3107 19.3763 57.745C18.8664 58.1793 18.4487 58.7112 18.1477 59.3096C17.8467 59.9079 17.6686 60.5604 17.6238 61.2287C17.5791 61.897 17.6686 62.5674 17.8871 63.2005L18.9482 66.2468C17.3503 67.1971 16.1299 68.6703 15.4934 70.4171C14.8569 72.1639 14.8434 74.0769 15.4553 75.8324L30.3104 118.481C31.014 120.5 32.4911 122.158 34.4168 123.089C35.3703 123.55 36.4052 123.818 37.4625 123.879C38.5198 123.94 39.5788 123.792 40.5789 123.444L119.782 95.8554C121.802 95.1519 123.46 93.6748 124.391 91.7491C125.321 89.8234 125.449 87.6068 124.746 85.587L109.89 42.9389C109.287 41.1716 108.089 39.6684 106.501 38.686C104.913 37.7036 103.033 37.3027 101.182 37.5519ZM43.5686 50.9247C42.9502 47.5902 43.4426 44.145 44.9701 41.1172C46.4976 38.0893 48.9759 35.646 52.0252 34.1618C52.5554 33.9091 53.099 33.6856 53.6536 33.4922C57.2295 32.237 61.1446 32.359 64.6354 33.8344C66.7308 34.7058 68.608 36.0291 70.1331 37.7097C71.6581 39.3903 72.7934 41.3869 73.4579 43.5568C74.1223 45.7268 74.2996 48.0166 73.9771 50.263C73.6546 52.5094 72.8401 54.6569 71.592 56.5522C70.6346 57.9587 70.0176 59.5685 69.7897 61.2546C69.5618 62.9406 69.7293 64.6565 70.2788 66.2667C70.4742 66.8404 70.4359 67.4681 70.1721 68.0138C69.9084 68.5595 69.4404 68.9795 68.8693 69.1829L67.9098 69.5171L64.196 58.8551C64.0727 58.499 63.8286 58.1973 63.5061 58.0023L55.6487 53.2926L63.9498 50.4011L62.1731 54.0772C62.025 54.4555 62.0252 54.8757 62.1735 55.2539C62.3219 55.6321 62.6074 55.9404 62.9732 56.1172C63.3389 56.2939 63.7579 56.3262 64.1464 56.2075C64.5349 56.0888 64.8643 55.8278 65.0688 55.4768L68.5429 48.2889C68.6775 48.0033 68.7253 47.6845 68.6804 47.372C68.6355 47.0594 68.4998 46.767 68.2903 46.5308C68.0807 46.2947 67.8065 46.1252 67.5015 46.0435C67.1966 45.9617 66.8744 45.9713 66.5748 46.0709L51.3433 51.3763C51.0535 51.4768 50.7983 51.6578 50.6077 51.8981C50.4171 52.1384 50.2989 52.4281 50.2672 52.7332C50.2354 53.0383 50.2913 53.3462 50.4282 53.6206C50.5652 53.8951 50.7776 54.1248 51.0406 54.2828L61.3407 60.4645L64.8635 70.5782L63.9039 70.9124C63.6166 71.0125 63.3123 71.0548 63.0086 71.0368C62.7049 71.0188 62.4077 70.9408 62.1342 70.8075C61.8608 70.6741 61.6164 70.488 61.4152 70.2598C61.214 70.0316 61.0599 69.7658 60.9618 69.4778C60.3852 67.8792 59.4466 66.4358 58.2193 65.2603C56.9921 64.0848 55.5096 63.2091 53.8877 62.7019C51.2685 61.8466 48.9279 60.3016 47.1121 58.2292C45.2963 56.1569 44.0723 53.6336 43.5686 50.9247ZM20.9334 62.1395C20.8566 61.9128 20.826 61.6731 20.8434 61.4345C20.8608 61.1958 20.9259 60.9631 21.0348 60.75C21.1437 60.5369 21.2942 60.3478 21.4774 60.1939C21.6606 60.04 21.8728 59.9244 22.1015 59.8539C28.4786 57.8294 35.0195 56.3625 41.6505 55.4699C42.6884 57.8869 44.232 60.0536 46.1774 61.8242C48.1228 63.5947 50.4248 64.9281 52.9286 65.7345C54.0889 66.0842 55.1521 66.6988 56.0343 67.5296C56.9165 68.3605 57.5936 69.385 58.0122 70.5223C58.4892 71.8923 59.4851 73.0201 60.7856 73.6628C62.086 74.3056 63.5869 74.4119 64.965 73.9587L69.9304 72.2292C70.6191 71.9871 71.2532 71.6114 71.7965 71.1238C72.3397 70.6362 72.7814 70.0462 73.0962 69.3875C73.411 68.7289 73.5927 68.0146 73.631 67.2857C73.6692 66.5567 73.5633 65.8273 73.3191 65.1393C72.9486 63.9959 72.8487 62.7821 73.0275 61.5935C73.2063 60.4049 73.6588 59.2741 74.3494 58.2903C75.7979 56.0973 76.762 53.6206 77.1775 51.0255C77.593 48.4304 77.4503 45.7765 76.759 43.2409L79.1123 41.8576C84.1391 39.0379 89.3678 36.5944 94.7555 34.5471C94.98 34.4557 95.2214 34.4136 95.4636 34.4235C95.7057 34.4335 95.9429 34.4953 96.1591 34.6047C96.3742 34.705 96.5667 34.8478 96.7251 35.0245C96.8835 35.2013 97.0045 35.4082 97.0808 35.6329L113.947 84.0538C114.097 84.4851 114.076 84.9579 113.887 85.3738C113.698 85.7897 113.355 86.1166 112.931 86.2863C101.032 90.6103 89.9964 97.0161 80.3403 105.204L71.093 78.656L72.6162 78.1255C73.0201 77.9848 73.3516 77.6893 73.5378 77.3042C73.7239 76.9191 73.7495 76.4757 73.6088 76.0718C73.4681 75.6678 73.1726 75.3363 72.7875 75.1501C72.4024 74.964 71.959 74.9385 71.5551 75.0792L65.4625 77.2013C65.0585 77.342 64.727 77.6375 64.5409 78.0226C64.3547 78.4077 64.3292 78.8511 64.4699 79.255C64.6106 79.659 64.906 79.9905 65.2912 80.1767C65.6763 80.3628 66.1196 80.3883 66.5236 80.2476L68.0467 79.7171L77.2994 106.281C64.6445 105.851 52.0144 107.682 40.0028 111.689C39.5636 111.824 39.089 111.783 38.679 111.576C38.269 111.368 37.9555 111.01 37.8046 110.576L20.9334 62.1395ZM33.3567 117.419L18.5016 74.7713C18.1759 73.8277 18.15 72.8064 18.4275 71.8474C18.705 70.8885 19.2724 70.0388 20.0518 69.415L34.7584 111.637C35.1917 112.858 36.0796 113.866 37.2373 114.449C38.3949 115.032 39.7329 115.146 40.9725 114.767C50.614 111.663 60.6358 109.896 70.7575 109.516L39.5178 120.397C38.3059 120.819 36.976 120.743 35.8205 120.184C34.6651 119.626 33.7789 118.631 33.3567 117.419ZM121.699 86.6481C122.121 87.8599 122.045 89.1899 121.486 90.3453C120.928 91.5007 119.933 92.387 118.721 92.8091L87.4664 103.696C95.6384 97.7023 104.594 92.8588 114.083 89.3008C115.29 88.8276 116.268 87.9071 116.813 86.731C117.358 85.5549 117.428 84.2139 117.008 82.9874L102.286 40.7201C103.292 40.7247 104.272 41.0432 105.089 41.6311C105.906 42.219 106.52 43.047 106.844 44L121.699 86.6481Z" fill="#0D5EF4"/>
<path d="M29.5197 67.5179C31.578 66.9546 33.6674 66.4318 35.7324 65.9858L35.9152 65.9221C36.3276 65.8057 36.6768 65.5301 36.8861 65.1562C37.0953 64.7822 37.1475 64.3404 37.031 63.928C36.9145 63.5156 36.639 63.1664 36.265 62.9571C35.8911 62.7478 35.4493 62.6957 35.0369 62.8122C32.9262 63.2741 30.7705 63.8029 28.6665 64.3821C28.2534 64.4965 27.9027 64.7704 27.6915 65.1434C27.4803 65.5165 27.426 65.9581 27.5404 66.3712C27.6549 66.7844 27.9288 67.1351 28.3018 67.3463C28.6748 67.5574 29.1165 67.6118 29.5296 67.4973L29.5197 67.5179Z" fill="#0D5EF4"/>
<path d="M31.7109 73.8085C35.5112 72.7566 39.3627 71.8996 43.2504 71.2408L43.5093 71.1506C43.7153 71.0979 43.9088 71.0052 44.079 70.8778C44.2491 70.7503 44.3924 70.5906 44.5008 70.4077C44.6092 70.2248 44.6805 70.0224 44.7106 69.812C44.7408 69.6015 44.7292 69.3872 44.6765 69.1813C44.6238 68.9754 44.5311 68.7818 44.4037 68.6117C44.2762 68.4416 44.1165 68.2982 43.9336 68.1899C43.7507 68.0815 43.5483 68.0102 43.3379 67.98C43.1274 67.9499 42.9131 67.9615 42.7072 68.0141C38.7118 68.6881 34.7533 69.5652 30.8472 70.6422C30.4341 70.7567 30.0834 71.0305 29.8722 71.4036C29.661 71.7766 29.6066 72.2183 29.7211 72.6314C29.8355 73.0445 30.1094 73.3952 30.4825 73.6064C30.8555 73.8176 31.2972 73.8719 31.7103 73.7575L31.7109 73.8085Z" fill="#0D5EF4"/>
<path d="M33.4457 83.3494C33.5606 83.7598 33.8331 84.1081 34.2039 84.3181C34.5747 84.5282 35.0136 84.583 35.4246 84.4705C43.7452 82.132 52.3147 80.7926 60.9521 80.4806C61.3801 80.4674 61.7853 80.2848 62.0786 79.9728C62.3719 79.6608 62.5293 79.2451 62.5161 78.8171C62.5029 78.3891 62.3203 77.9839 62.0083 77.6906C61.6963 77.3973 61.2806 77.2399 60.8526 77.2531C51.9526 77.5516 43.1197 78.9082 34.5403 81.2943C34.331 81.3534 34.1358 81.4542 33.9664 81.5906C33.797 81.7271 33.657 81.8964 33.5547 82.0884C33.4525 82.2804 33.3901 82.4911 33.3714 82.7078C33.3526 82.9245 33.3779 83.1427 33.4457 83.3494Z" fill="#0D5EF4"/>
<path d="M63.473 84.7263C54.5729 85.025 45.7401 86.3816 37.1607 88.7676C36.9561 88.8242 36.7647 88.9206 36.5974 89.0513C36.4301 89.1819 36.2902 89.3442 36.1856 89.5289C35.9745 89.902 35.9201 90.3436 36.0346 90.7567C36.149 91.1699 36.4229 91.5206 36.7959 91.7318C37.169 91.9429 37.6106 91.9973 38.0237 91.8828C46.3467 89.5492 54.918 88.2149 63.5565 87.9082C63.932 87.8362 64.2697 87.6331 64.5094 87.3352C64.7491 87.0374 64.8751 86.664 64.8651 86.2818C64.8551 85.8996 64.7096 85.5334 64.4546 85.2485C64.1996 84.9636 63.8517 84.7785 63.473 84.7263Z" fill="#0D5EF4"/>
<path d="M66.1253 92.3421C57.2253 92.6406 48.3924 93.9972 39.813 96.3833C39.3999 96.4977 39.0492 96.7716 38.838 97.1447C38.6268 97.5177 38.5725 97.9594 38.6869 98.3725C38.8014 98.7856 39.0752 99.1363 39.4483 99.3475C39.8213 99.5587 40.263 99.613 40.6761 99.4986C49.0224 97.2245 57.6101 95.9534 66.2573 95.712C66.7041 95.6945 67.1258 95.5002 67.4294 95.1718C67.733 94.8434 67.8937 94.4079 67.8762 93.961C67.8587 93.5142 67.6644 93.0925 67.3361 92.7889C67.0077 92.4853 66.5722 92.3246 66.1253 92.3421Z" fill="#0D5EF4"/>
<path d="M76.687 75.102C76.8464 75.0723 77.0005 75.0186 77.1439 74.9429C84.1035 69.8163 91.6489 65.5369 99.6207 62.1949C100.016 62.0279 100.328 61.7109 100.489 61.3137C100.65 60.9165 100.647 60.4715 100.48 60.0767C100.313 59.6819 99.9959 59.3695 99.5987 59.2084C99.2014 59.0473 98.7565 59.0506 98.3616 59.2176C90.1564 62.6779 82.3921 67.1024 75.2326 72.3977C75.043 72.4974 74.8749 72.6334 74.7379 72.798C74.6009 72.9627 74.4977 73.1527 74.4341 73.3572C74.3058 73.7703 74.3467 74.2174 74.548 74.6003C74.7493 74.9831 75.0945 75.2703 75.5076 75.3987C75.9206 75.5271 76.3678 75.4861 76.7506 75.2848L76.687 75.102Z" fill="#0D5EF4"/>
<path d="M79.2711 82.5197C79.4305 82.49 79.5846 82.4363 79.728 82.3606C86.6756 77.2094 94.2122 72.9044 102.178 69.5364C102.374 69.4538 102.551 69.3334 102.7 69.1822C102.849 69.031 102.967 68.8519 103.047 68.6553C103.126 68.4586 103.167 68.2481 103.165 68.0358C103.163 67.8236 103.12 67.6137 103.037 67.4182C102.955 67.2227 102.834 67.0454 102.683 66.8965C102.532 66.7475 102.353 66.6298 102.156 66.55C101.96 66.4702 101.749 66.4299 101.537 66.4315C101.325 66.4331 101.115 66.4764 100.919 66.5591C92.7141 70.0196 84.9498 74.444 77.7902 79.7392C77.4074 79.9405 77.1201 80.2857 76.9918 80.6987C76.8634 81.1118 76.9044 81.559 77.1057 81.9418C77.307 82.3247 77.6521 82.6119 78.0652 82.7403C78.4782 82.8686 78.9254 82.8277 79.3082 82.6264L79.2711 82.5197Z" fill="#0D5EF4"/>
<path d="M81.9614 90.2421C82.1208 90.2123 82.2749 90.1587 82.4183 90.0829C89.3779 84.9564 96.9234 80.6769 104.895 77.335C105.29 77.168 105.602 76.851 105.763 76.4538C105.925 76.0565 105.921 75.6116 105.754 75.2168C105.587 74.8219 105.27 74.5096 104.873 74.3485C104.476 74.1874 104.031 74.1907 103.636 74.3576C95.4175 77.756 87.632 82.119 80.4433 87.355C80.0605 87.5563 79.7733 87.9014 79.6449 88.3145C79.5165 88.7276 79.5575 89.1747 79.7588 89.5576C79.9601 89.9404 80.3052 90.2276 80.7183 90.356C81.1314 90.4844 81.5785 90.4434 81.9614 90.2421Z" fill="#0D5EF4"/>
<path d="M51.0013 25.8764C51.4053 25.7357 51.7368 25.4403 51.923 25.0551C52.1091 24.67 52.1346 24.2267 51.9939 23.8227L49.8718 17.7301C49.731 17.3262 49.4356 16.9946 49.0505 16.8085C48.6653 16.6223 48.222 16.5968 47.8181 16.7375C47.4141 16.8782 47.0826 17.1737 46.8964 17.5588C46.7103 17.9439 46.6848 18.3872 46.8255 18.7912L48.9476 24.8838C49.0883 25.2878 49.3838 25.6193 49.7689 25.8054C50.154 25.9916 50.5974 26.0171 51.0013 25.8764Z" fill="#0D5EF4"/>
<path d="M63.3246 26.5883C63.5255 26.5196 63.7108 26.412 63.87 26.2716C64.0292 26.1311 64.1591 25.9607 64.2522 25.7699L67.0613 19.958C67.2093 19.5797 67.2092 19.1595 67.0608 18.7813C66.9125 18.4031 66.6269 18.0948 66.2612 17.918C65.8954 17.7413 65.4764 17.709 65.0879 17.8277C64.6995 17.9464 64.3701 18.2074 64.1656 18.5584L61.336 24.3604C61.1954 24.6483 61.1437 24.9715 61.1875 25.2889C61.2313 25.6062 61.3687 25.9033 61.582 26.1423C61.7953 26.3813 62.075 26.5514 62.3854 26.6308C62.6957 26.7102 63.0227 26.6955 63.3246 26.5883Z" fill="#0D5EF4"/>
<path d="M40.5517 34.0251C40.93 34.1732 41.3502 34.173 41.7284 34.0247C42.1066 33.8763 42.4149 33.5908 42.5917 33.225C42.7684 32.8593 42.8007 32.4403 42.682 32.0518C42.5633 31.6633 42.3023 31.3339 41.9513 31.1294L36.1493 28.2998C35.771 28.1518 35.3508 28.1519 34.9726 28.3003C34.5944 28.4486 34.2861 28.7342 34.1093 29.0999C33.9325 29.4657 33.9003 29.8847 34.019 30.2732C34.1377 30.6617 34.3987 30.9911 34.7497 31.1955L40.5517 34.0251Z" fill="#0D5EF4"/>
</g>
</svg>
