<svg width="50" height="50" viewBox="0 0 50 50" fill="none" xmlns="http://www.w3.org/2000/svg">
<circle cx="25" cy="25" r="24.5" fill="white" stroke="#D9D9D9"/>
<path d="M19.7501 23.5093C19.9489 23.5096 20.1398 23.4305 20.2805 23.2898C20.4211 23.1492 20.5002 22.9583 20.4999 22.7595C20.4999 22.3453 20.8358 22.0094 21.25 22.0094C21.6642 22.0094 22.0001 22.3453 22.0001 22.7595C22.0001 23.1737 22.3357 23.5093 22.7499 23.5093C23.1644 23.5093 23.5 23.1737 23.5 22.7595C23.5 21.5167 22.4925 20.5095 21.25 20.5095C20.0074 20.5095 19 21.5167 19 22.7595C19 22.9583 19.0788 23.1492 19.2195 23.2898C19.3604 23.4305 19.551 23.5096 19.7501 23.5093Z" fill="#313B4E"/>
<path d="M29.9148 28.4636C27.1139 29.8638 22.8872 29.8638 20.0857 28.4636C19.7151 28.2782 19.2647 28.4284 19.0793 28.7989C18.8942 29.1695 19.0442 29.6202 19.4147 29.8053C21.1604 30.6287 23.0704 31.0434 25.0001 31.0182C26.9298 31.0434 28.8401 30.6284 30.5855 29.8053C30.956 29.6202 31.1063 29.1695 30.9212 28.7989C30.7358 28.4284 30.2853 28.2782 29.9148 28.4636Z" fill="#313B4E"/>
<path d="M37.75 22.0094H36.9999V19.7594C36.998 17.6893 35.3201 16.0114 33.25 16.0095H31V14.3712C32.033 14.0062 32.6529 12.9495 32.4675 11.8696C32.2821 10.7894 31.3458 10 30.2499 10C29.1541 10 28.2177 10.7894 28.0324 11.8696C27.847 12.9495 28.4669 14.0062 29.4998 14.3712V16.0095H20.4999V14.3712C21.5331 14.0062 22.1528 12.9495 21.9676 11.8696C21.7823 10.7894 20.8459 10 19.7501 10C18.6542 10 17.7176 10.7894 17.5325 11.8696C17.3471 12.9495 17.9667 14.0062 19 14.3712V16.0095H16.75C14.6799 16.0117 13.0023 17.6893 13.0001 19.7594V22.0094H12.25C11.008 22.0108 10.0014 23.0174 10 24.2594V27.2595C10.0014 28.5015 11.008 29.5081 12.25 29.5095H13.0001V32.5093C13.0023 34.5796 14.6799 36.2572 16.75 36.2594H20.4999V39.2593C20.5002 39.532 20.6482 39.783 20.8866 39.9151C21.125 40.0472 21.4164 40.0396 21.6474 39.8951L27.4652 36.2594H33.25C35.3201 36.2575 36.998 34.5796 36.9999 32.5093V29.5095H37.75C38.992 29.5081 39.9986 28.5015 40 27.2595V24.2594C39.9986 23.0174 38.992 22.0108 37.75 22.0094ZM30.2499 11.5095C30.6641 11.5095 31 11.8451 31 12.2593C31 12.6738 30.6641 13.0094 30.2499 13.0094C29.8358 13.0094 29.4998 12.6738 29.4998 12.2593C29.5007 11.8457 29.836 11.5103 30.2499 11.5095ZM19.7501 11.5095C20.1642 11.5095 20.4999 11.8451 20.4999 12.2593C20.4999 12.6738 20.1642 13.0094 19.7501 13.0094C19.3359 13.0094 19 12.6738 19 12.2593C19.0005 11.8454 19.3359 11.5101 19.7501 11.5095ZM12.25 28.0093C11.8361 28.009 11.5005 27.6734 11.4999 27.2595V24.2594C11.5005 23.8455 11.8361 23.5098 12.25 23.5093H13.0001V28.0093H12.25ZM35.5 32.5093C35.4986 33.7515 34.492 34.7582 33.25 34.7593H27.2499C27.1095 34.7593 26.9719 34.7988 26.853 34.8735L22.0001 37.9057V35.5094C22.0001 35.3105 21.9212 35.1196 21.7803 34.979C21.6397 34.8384 21.4488 34.7593 21.25 34.7593H16.75C15.508 34.7582 14.5014 33.7515 14.5 32.5093V19.7594C14.5014 18.5174 15.508 17.5108 16.75 17.5094H33.25C34.492 17.5108 35.4986 18.5174 35.5 19.7594V32.5093ZM38.4998 27.2595C38.4993 27.6734 38.1639 28.0087 37.75 28.0093H36.9999V23.5093H37.75C38.1639 23.5101 38.4993 23.8455 38.4998 24.2594V27.2595Z" fill="#313B4E"/>
<path d="M28.75 20.5095C27.508 20.5109 26.5014 21.5175 26.5 22.7595C26.5 23.1737 26.8356 23.5093 27.2498 23.5093C27.6643 23.5093 27.9999 23.1737 27.9999 22.7595C27.9999 22.3453 28.3358 22.0094 28.75 22.0094C29.1642 22.0094 29.4998 22.3453 29.4998 22.7595C29.4998 23.1737 29.8357 23.5093 30.2499 23.5093C30.6641 23.5093 31 23.1737 31 22.7595C30.9986 21.5175 29.992 20.5109 28.75 20.5095Z" fill="#313B4E"/>
</svg>
