<svg width="35" height="27" viewBox="0 0 35 27" fill="none" xmlns="http://www.w3.org/2000/svg">
<path d="M28.4375 15.6846V20.4424C28.4375 22.1705 27.4203 23.7127 25.8453 24.4346C23.9312 25.3096 21.0328 26.2611 17.5 26.2611C13.9672 26.2611 11.0687 25.3096 9.14375 24.4346C7.57969 23.7127 6.5625 22.1705 6.5625 20.4424V15.6846L14.3391 19.2393C15.3344 19.6986 16.4062 19.9283 17.5 19.9283C18.5938 19.9283 19.6656 19.6986 20.6609 19.2393L28.4375 15.6846Z" fill="#313B4E"/>
<path d="M32.8125 13.683V20.7924C32.8125 21.394 32.3203 21.8862 31.7188 21.8862C31.1172 21.8862 30.625 21.394 30.625 20.7924V14.6893L32.8125 13.683Z" fill="#313B4E"/>
<path d="M15.2447 17.253C15.9611 17.58 16.73 17.7441 17.5 17.7441C18.27 17.7441 19.0378 17.5811 19.7553 17.253L33.7236 10.8677C34.5111 10.5079 35 9.74552 35 8.87817C35 8.01083 34.5111 7.24739 33.7236 6.88755L19.7553 0.50333C18.3214 -0.151826 16.6797 -0.151826 15.2458 0.50333L1.27641 6.88646C0.488906 7.24739 0 8.00974 0 8.87708C0 9.74442 0.488906 10.5068 1.27641 10.8677L15.2447 17.253Z" fill="#313B4E"/>
</svg>
