<svg width="26" height="26" viewBox="0 0 26 26" fill="none" xmlns="http://www.w3.org/2000/svg">
<path d="M25.3016 11.3099C25.301 11.3093 25.3004 11.3087 25.2998 11.3081L14.6928 0.701488C14.2407 0.249171 13.6396 0 13.0002 0C12.3608 0 11.7597 0.248973 11.3073 0.701289L0.705879 11.3026C0.702308 11.3061 0.698737 11.3099 0.695166 11.3135C-0.233273 12.2473 -0.231686 13.7623 0.699729 14.6937C1.12526 15.1195 1.68729 15.3661 2.28819 15.3919C2.31259 15.3942 2.33719 15.3954 2.36199 15.3954H2.78475V23.2013C2.78475 24.7459 4.04152 26.0027 5.58653 26.0027H9.73634C10.1569 26.0027 10.4981 25.6616 10.4981 25.2409V19.1211C10.4981 18.4162 11.0715 17.8429 11.7763 17.8429H14.224C14.9289 17.8429 15.5022 18.4162 15.5022 19.1211V25.2409C15.5022 25.6616 15.8432 26.0027 16.264 26.0027H20.4138C21.9588 26.0027 23.2156 24.7459 23.2156 23.2013V15.3954H23.6076C24.2468 15.3954 24.8479 15.1465 25.3004 14.6941C26.2328 13.7611 26.2332 12.2435 25.3016 11.3099Z" fill="#313B4E"/>
</svg>
