<svg width="26" height="31" viewBox="0 0 26 31" fill="none" xmlns="http://www.w3.org/2000/svg">
<path d="M13.0009 10.2791C15.8393 10.2791 18.1404 7.97802 18.1404 5.13954C18.1404 2.30105 15.8393 0 13.0009 0C10.1624 0 7.86133 2.30105 7.86133 5.13954C7.86133 7.97802 10.1624 10.2791 13.0009 10.2791Z" fill="#313B4E"/>
<path d="M16.7768 10.9753C15.6886 11.682 14.3916 12.093 13.0002 12.093C11.6089 12.093 10.3118 11.682 9.22364 10.9753C8.02069 11.4351 6.90535 12.1133 5.93555 12.9838L13.0002 15.633L20.0649 12.9838C19.0951 12.1133 17.9798 11.435 16.7768 10.9753Z" fill="#313B4E"/>
<path d="M23.8847 18.7442H23.28C22.7791 18.7442 22.373 19.1503 22.373 19.6512V22.0698C22.373 22.5707 22.7791 22.9768 23.28 22.9768H23.8847C25.0535 22.9768 26.001 22.0293 26.001 20.8605C26.001 19.6917 25.0535 18.7442 23.8847 18.7442Z" fill="#313B4E"/>
<path d="M2.80833 14.1655C2.56381 14.335 2.41797 14.6135 2.41797 14.911V16.9302H2.72029C4.22062 16.9302 5.44122 18.1508 5.44122 19.6512V22.0698C5.44122 23.5701 4.22062 24.7907 2.72029 24.7907H2.41797V26.7017C2.41797 27.0798 2.65251 27.4182 3.00648 27.5509L12.0924 30.9581V17.2301L3.64342 14.0618C3.36485 13.9572 3.05279 13.996 2.80833 14.1655Z" fill="#313B4E"/>
<path d="M20.5574 22.0698V19.6512C20.5574 18.1508 21.778 16.9302 23.2783 16.9302H23.5807V14.911C23.5807 14.6135 23.4348 14.335 23.1903 14.1655C22.9458 13.996 22.6337 13.9572 22.3552 14.0618L13.9062 17.2301V30.9581L22.9922 27.5509C23.3461 27.4182 23.5807 27.0798 23.5807 26.7017V24.7907H23.2783C21.778 24.7907 20.5574 23.5701 20.5574 22.0698Z" fill="#313B4E"/>
<path d="M3.62791 22.0698V19.6512C3.62791 19.1503 3.22182 18.7442 2.72093 18.7442H2.11628C0.947488 18.7442 0 19.6917 0 20.8605C0 22.0293 0.947488 22.9768 2.11628 22.9768H2.72093C3.22182 22.9768 3.62791 22.5707 3.62791 22.0698Z" fill="#313B4E"/>
</svg>
