<svg width="54" height="54" viewBox="0 0 54 54" fill="none" xmlns="http://www.w3.org/2000/svg">
<circle cx="27" cy="27" r="27" fill="url(#paint0_linear_168_4823)"/>
<path fill-rule="evenodd" clip-rule="evenodd" d="M39.9833 16.7021C40.067 16.1509 39.8321 15.5986 39.3775 15.2742C38.9228 14.9509 38.324 14.9102 37.8298 15.1695C33.8752 17.2463 20.0416 24.509 15.7928 26.7392C15.2683 27.0136 14.959 27.5741 15.0044 28.1636C15.0497 28.7531 15.4404 29.2601 16.0009 29.452C17.6555 30.0183 19.6776 30.7124 22.8485 31.7996L35.6391 19.8451L25.288 32.6357C28.6694 33.795 33.9566 35.6077 35.2833 36.0624C35.6984 36.2054 36.1566 36.1554 36.5321 35.9287C36.9077 35.7008 37.1624 35.3182 37.2286 34.8833L39.9833 16.7021Z" fill="white"/>
<path fill-rule="evenodd" clip-rule="evenodd" d="M23.8145 33.3601V37.1624C23.8145 37.7461 24.1575 38.2752 24.6889 38.5136C25.2214 38.7531 25.8435 38.6577 26.2796 38.2694L29.5795 35.3368L23.8145 33.3601Z" fill="white"/>
<defs>
<linearGradient id="paint0_linear_168_4823" x1="27" y1="0" x2="27" y2="54" gradientUnits="userSpaceOnUse">
<stop stop-color="#0D5EF4"/>
<stop offset="1" stop-color="#5E8DE4"/>
</linearGradient>
</defs>
</svg>
