<svg width="36" height="32" viewBox="0 0 36 32" fill="none" xmlns="http://www.w3.org/2000/svg">
<path fill-rule="evenodd" clip-rule="evenodd" d="M23.1346 0C23.8781 0 24.4808 0.6027 24.4808 1.34615V30.0641C24.4808 30.8075 23.8781 31.4103 23.1346 31.4103C22.3912 31.4103 21.7885 30.8075 21.7885 30.0641V1.34615C21.7885 0.6027 22.3912 0 23.1346 0ZM17.75 5.38462C18.4934 5.38462 19.0962 5.98732 19.0962 6.73077V24.6795C19.0962 25.4229 18.4934 26.0256 17.75 26.0256C17.0066 26.0256 16.4038 25.4229 16.4038 24.6795V6.73077C16.4038 5.98732 17.0066 5.38462 17.75 5.38462ZM6.98077 7.17949C7.72422 7.17949 8.32692 7.78219 8.32692 8.52564V22.8846C8.32692 23.6281 7.72422 24.2308 6.98077 24.2308C6.23732 24.2308 5.63462 23.6281 5.63462 22.8846V8.52564C5.63462 7.78219 6.23732 7.17949 6.98077 7.17949ZM28.5192 8.97436C29.2627 8.97436 29.8654 9.57706 29.8654 10.3205V21.0897C29.8654 21.8332 29.2627 22.4359 28.5192 22.4359C27.7758 22.4359 27.1731 21.8332 27.1731 21.0897V10.3205C27.1731 9.57706 27.7758 8.97436 28.5192 8.97436ZM12.3654 10.7692C13.1088 10.7692 13.7115 11.3719 13.7115 12.1154V19.2949C13.7115 20.0383 13.1088 20.641 12.3654 20.641C11.6219 20.641 11.0192 20.0383 11.0192 19.2949V12.1154C11.0192 11.3719 11.6219 10.7692 12.3654 10.7692ZM1.59615 12.5641C2.33961 12.5641 2.94231 13.1668 2.94231 13.9103V17.5C2.94231 18.2434 2.33961 18.8462 1.59615 18.8462C0.8527 18.8462 0.25 18.2434 0.25 17.5V13.9103C0.25 13.1668 0.8527 12.5641 1.59615 12.5641ZM33.9038 12.5641C34.6473 12.5641 35.25 13.1668 35.25 13.9103V17.5C35.25 18.2434 34.6473 18.8462 33.9038 18.8462C33.1604 18.8462 32.5577 18.2434 32.5577 17.5V13.9103C32.5577 13.1668 33.1604 12.5641 33.9038 12.5641Z" fill="#555555"/>
</svg>
